<?xml version="1.0" standalone="no"?>
<!DOCTYPE svg PUBLIC "-//W3C//DTD SVG 20010904//EN"
 "http://www.w3.org/TR/2001/REC-SVG-20010904/DTD/svg10.dtd">
<svg version="1.0" xmlns="http://www.w3.org/2000/svg"
 width="100.000000pt" height="100.000000pt" viewBox="0 0 100.000000 100.000000"
 preserveAspectRatio="xMidYMid meet">
<metadata>
Created by potrace 1.11, written by Peter Selinger 2001-2013
</metadata>
<g transform="translate(0.000000,100.000000) scale(0.100000,-0.100000)"
fill="#000000" stroke="none">
<path d="M234 933 c10 -40 82 -183 107 -213 23 -28 16 -10 -13 33 -11 15 -15
27 -9 27 6 0 11 -4 11 -9 0 -4 27 -36 61 -70 l61 -61 -39 4 c-109 9 -212 -74
-238 -192 -11 -52 -13 -112 -3 -112 5 0 7 -4 4 -9 -11 -17 34 -136 64 -174 34
-40 111 -97 132 -97 7 0 -1 8 -17 18 -42 26 -94 88 -117 140 -27 59 -15 66 13
8 40 -85 142 -165 211 -166 15 0 29 -4 33 -10 3 -5 -7 -8 -25 -5 -20 2 -28 0
-24 -7 4 -7 33 -9 80 -5 169 13 279 134 288 318 5 116 -41 210 -129 259 l-40
22 42 -40 c63 -62 86 -120 85 -220 0 -46 -4 -88 -9 -93 -6 -6 -8 12 -7 46 4
112 -36 206 -117 279 -40 36 -49 40 -100 40 l-56 0 5 68 c4 54 0 80 -18 130
-27 75 -37 88 -50 68 -6 -9 -5 -17 2 -21 6 -4 7 -12 3 -18 -3 -7 -7 -32 -7
-56 0 -25 -1 -45 -4 -45 -2 0 -10 13 -19 29 -17 34 -141 161 -157 161 -6 0 -8
-11 -4 -27z"/>
</g>
</svg>
